<svg version="1.1" xmlns="http://www.w3.org/2000/svg" xmlns:xlink="http://www.w3.org/1999/xlink" role="img" width="138" height="99" viewbox="0 0 138 99"><title>akai</title><desc>Generated by logo.svg, https://github.com/bubkoo/logo.svg</desc><path fill="#cb3837" d="M26.85 61.54Q26.63 60.32 26.42 58.88Q26.20 57.44 25.98 56.14Q25.77 54.85 25.59 53.91Q25.41 52.98 25.34 52.69Q24.18 53.12 22.74 53.70Q21.30 54.27 19.86 54.96Q18.42 55.64 17.13 56.32Q15.83 57.01 14.97 57.58Q13.31 58.66 12.45 59.74Q11.58 60.82 11.58 62.34Q11.58 64.42 12.81 66.01Q14.03 67.59 16.62 67.59Q17.99 67.59 19.47 67.09Q20.94 66.58 22.20 65.94Q23.46 65.29 24.40 64.64Q25.34 63.99 25.70 63.63Q26.27 63.06 26.60 62.66Q26.92 62.26 26.85 61.54M24.76 50.38Q24.33 48.15 23.75 46.39Q23.18 44.62 22.31 43.44Q21.45 42.25 20.22 41.64Q19.00 41.02 17.20 41.02Q15.62 41.02 14.28 41.60Q12.95 42.18 11.98 42.97Q11.01 43.76 10.47 44.55Q9.93 45.34 9.86 45.78Q9.78 46.35 9.21 46.35Q8.20 46.35 7.34 45.63Q6.47 44.91 6.47 43.90Q6.47 43.33 6.62 43.04Q8.27 42.10 10.65 41.02Q13.02 39.94 15.58 39.01Q18.14 38.07 20.66 37.46Q23.18 36.85 25.19 36.85Q28.22 36.85 29.84 37.71Q31.46 38.58 32.25 40.16Q33.04 41.74 33.22 43.87Q33.40 45.99 33.54 48.44Q33.76 52.11 34.12 55.53Q34.48 58.95 35.20 61.58Q35.92 64.21 37.04 65.83Q38.15 67.45 39.81 67.45Q40.60 67.45 41.54 67.16Q42.47 66.87 43.34 66.48Q44.20 66.08 44.88 65.68Q45.57 65.29 45.78 65.14Q46.43 65.14 46.58 65.79Q46.58 66.15 46.43 66.44Q46.29 66.58 45.35 67.16Q44.42 67.74 43.05 68.53Q41.68 69.32 40.02 70.22Q38.37 71.12 36.75 71.91Q35.13 72.70 33.76 73.21Q32.39 73.71 31.60 73.71Q30.66 73.71 29.98 72.96Q29.30 72.20 28.79 70.94Q28.29 69.68 27.93 68.02Q27.57 66.37 27.28 64.57Q25.98 65.65 23.97 67.12Q21.95 68.60 19.58 69.90Q17.20 71.19 14.72 72.09Q12.23 72.99 9.93 72.99Q7.98 72.99 6.54 72.38Q5.10 71.77 4.13 70.76Q3.16 69.75 2.69 68.42Q2.22 67.09 2.22 65.65Q2.22 63.34 3.63 61.87Q5.03 60.39 7.98 58.81Q9.35 58.09 11.80 56.90Q14.25 55.71 16.80 54.49Q19.36 53.26 21.56 52.15Q23.75 51.03 24.76 50.38ZM52.62 56.14Q52.62 57.58 52.55 59.74Q52.48 61.90 52.48 64.21Q52.48 66.80 53.27 67.92Q54.06 69.03 55.36 69.03Q55.43 69.03 55.72 68.96Q56.01 68.89 56.33 68.85Q56.66 68.82 56.94 68.74Q57.23 68.67 57.30 68.67Q57.45 68.67 57.63 68.92Q57.81 69.18 57.74 69.32Q57.30 69.82 55.76 70.54Q54.21 71.26 52.30 71.95Q50.39 72.63 48.63 73.14Q46.86 73.64 46 73.64Q44.99 73.64 44.42 73.06Q43.84 72.49 43.84 72.20Q43.84 71.98 43.88 71.91Q43.91 71.84 43.95 71.77Q43.98 71.70 44.06 71.52Q44.13 71.34 44.20 70.90Q44.42 69.97 44.63 68.49Q44.85 67.02 45.03 64.82Q45.21 62.62 45.35 59.49Q45.50 56.36 45.64 52.04Q45.71 48.66 45.75 45.38Q45.78 42.10 45.82 39.22Q45.86 36.34 45.86 33.93Q45.86 31.52 45.86 29.86Q45.86 26.41 45.50 24.46Q45.14 22.52 44.70 21.94Q44.20 21.22 43.30 21.19Q42.40 21.15 42.04 21.08Q41.97 20.43 42.11 19.93Q42.26 19.50 42.54 19.14Q42.83 18.78 43.62 18.78Q44.92 18.78 46.65 18.74Q48.38 18.70 50.25 18.60Q52.12 18.49 53.92 18.31Q55.72 18.13 57.09 17.84Q57.52 17.77 57.56 18.09Q57.59 18.42 57.45 19.21Q57.38 19.64 57.05 19.75Q56.73 19.86 56.33 19.86Q55.94 19.86 55.61 19.89Q55.29 19.93 55.14 20.22Q55 20.58 54.78 21.15Q54.57 21.73 54.42 22.81Q54.21 24.25 53.99 26.66Q53.78 29.07 53.60 32.02Q53.42 34.98 53.24 38.22Q53.06 41.46 52.91 44.48Q52.77 47.50 52.70 50.10Q52.62 52.69 52.62 54.34Q54.71 54.34 57.12 53.34Q59.54 52.33 61.59 50.60Q63.64 48.87 65.01 46.53Q66.38 44.19 66.38 41.53Q66.38 39.44 65.01 39.44Q63.86 39.44 62.92 39.76Q61.98 40.09 61.62 40.09Q60.54 40.09 60.40 39.51Q60.40 39.08 60.76 38.54Q61.12 38.00 61.48 37.86Q62.99 37.86 64.90 37.71Q66.81 37.57 68.75 37.32Q70.70 37.06 72.50 36.78Q74.30 36.49 75.52 36.27Q75.88 36.42 75.88 36.70Q75.88 37.35 74.69 39.51Q73.50 41.67 71.52 44.26Q69.54 46.86 67.02 49.30Q64.50 51.75 61.84 52.98Q62.63 53.48 63.93 54.85Q65.22 56.22 66.77 58.02Q68.32 59.82 70.05 61.76Q71.78 63.70 73.58 65.32Q75.38 66.94 77.07 67.99Q78.76 69.03 80.27 69.03Q81.35 69.03 81.96 68.82Q82.58 68.60 83.22 68.24Q83.58 68.46 83.58 68.74Q83.58 69.32 83.04 69.86Q82.50 70.40 80.63 70.98Q79.41 71.34 77.82 71.95Q76.24 72.56 74.76 73.10Q73.29 73.64 72.17 74.00Q71.06 74.36 70.77 74.29Q70.19 74.14 68.93 72.88Q67.67 71.62 66.05 69.79Q64.43 67.95 62.60 65.76Q60.76 63.56 59.00 61.62Q57.23 59.67 55.72 58.16Q54.21 56.65 53.20 56.14L52.62 56.14ZM103.53 61.54Q103.31 60.32 103.10 58.88Q102.88 57.44 102.66 56.14Q102.45 54.85 102.27 53.91Q102.09 52.98 102.02 52.69Q100.86 53.12 99.42 53.70Q97.98 54.27 96.54 54.96Q95.10 55.64 93.81 56.32Q92.51 57.01 91.65 57.58Q89.99 58.66 89.13 59.74Q88.26 60.82 88.26 62.34Q88.26 64.42 89.49 66.01Q90.71 67.59 93.30 67.59Q94.67 67.59 96.15 67.09Q97.62 66.58 98.88 65.94Q100.14 65.29 101.08 64.64Q102.02 63.99 102.38 63.63Q102.95 63.06 103.28 62.66Q103.60 62.26 103.53 61.54M101.44 50.38Q101.01 48.15 100.43 46.39Q99.86 44.62 98.99 43.44Q98.13 42.25 96.90 41.64Q95.68 41.02 93.88 41.02Q92.30 41.02 90.96 41.60Q89.63 42.18 88.66 42.97Q87.69 43.76 87.15 44.55Q86.61 45.34 86.54 45.78Q86.46 46.35 85.89 46.35Q84.88 46.35 84.02 45.63Q83.15 44.91 83.15 43.90Q83.15 43.33 83.30 43.04Q84.95 42.10 87.33 41.02Q89.70 39.94 92.26 39.01Q94.82 38.07 97.34 37.46Q99.86 36.85 101.87 36.85Q104.90 36.85 106.52 37.71Q108.14 38.58 108.93 40.16Q109.72 41.74 109.90 43.87Q110.08 45.99 110.22 48.44Q110.44 52.11 110.80 55.53Q111.16 58.95 111.88 61.58Q112.60 64.21 113.72 65.83Q114.83 67.45 116.49 67.45Q117.28 67.45 118.22 67.16Q119.15 66.87 120.02 66.48Q120.88 66.08 121.56 65.68Q122.25 65.29 122.46 65.14Q123.11 65.14 123.26 65.79Q123.26 66.15 123.11 66.44Q122.97 66.58 122.03 67.16Q121.10 67.74 119.73 68.53Q118.36 69.32 116.70 70.22Q115.05 71.12 113.43 71.91Q111.81 72.70 110.44 73.21Q109.07 73.71 108.28 73.71Q107.34 73.71 106.66 72.96Q105.98 72.20 105.47 70.94Q104.97 69.68 104.61 68.02Q104.25 66.37 103.96 64.57Q102.66 65.65 100.65 67.12Q98.63 68.60 96.26 69.90Q93.88 71.19 91.40 72.09Q88.91 72.99 86.61 72.99Q84.66 72.99 83.22 72.38Q81.78 71.77 80.81 70.76Q79.84 69.75 79.37 68.42Q78.90 67.09 78.90 65.65Q78.90 63.34 80.31 61.87Q81.71 60.39 84.66 58.81Q86.03 58.09 88.48 56.90Q90.93 55.71 93.48 54.49Q96.04 53.26 98.24 52.15Q100.43 51.03 101.44 50.38ZM130.74 60.25Q130.74 61.76 130.82 63.16Q130.89 64.57 131.32 65.58Q131.75 66.58 132.62 67.20Q133.48 67.81 135.06 67.81Q135.86 67.81 136.86 67.63Q137.87 67.45 138.77 67.16Q139.67 66.87 140.36 66.58Q141.04 66.30 141.18 66.15Q141.40 65.94 141.47 66.15Q141.54 66.37 141.51 66.69Q141.47 67.02 141.33 67.34Q141.18 67.66 140.97 67.81Q140.25 68.17 138.45 69.10Q136.65 70.04 134.20 71.05Q131.90 72.06 129.70 72.74Q127.50 73.42 126.06 73.42Q124.41 73.42 123.47 72.42Q122.54 71.41 122.54 69.90Q122.54 69.39 122.57 69.03Q122.61 68.67 122.68 68.10Q122.75 67.38 122.93 65.47Q123.11 63.56 123.29 61.18Q123.47 58.81 123.62 56.40Q123.76 53.98 123.76 52.26L123.76 49.74Q123.76 47.86 123.54 46.42Q123.33 44.98 122.82 44.19Q122.46 43.69 121.92 43.36Q121.38 43.04 120.59 43.04Q120.16 43.04 119.73 43.22Q119.30 43.40 119.08 43.40Q118.94 43.40 118.61 42.97Q118.29 42.54 118.65 42.32Q119.15 41.96 120.74 41.17Q122.32 40.38 124.19 39.44Q126.21 38.43 128.08 37.68Q129.95 36.92 130.74 36.92Q131.54 36.92 131.82 37.39Q132.11 37.86 132.11 38.43L132.11 38.72Q132.11 39.44 131.90 41.02Q131.68 42.61 131.43 44.91Q131.18 47.22 130.96 50.24Q130.74 53.26 130.74 56.79L130.74 60.25M127.86 22.81Q128.22 22.88 129.05 23.60Q129.88 24.32 130.74 25.26Q131.61 26.19 132.26 27.06Q132.90 27.92 132.90 28.21Q132.90 28.57 132.04 29.29Q131.18 30.01 130.06 30.76Q128.94 31.52 127.90 32.10Q126.86 32.67 126.42 32.67Q126.21 32.67 125.38 31.99Q124.55 31.30 123.69 30.44Q122.82 29.58 122.14 28.75Q121.46 27.92 121.46 27.63Q121.46 27.27 122.39 26.52Q123.33 25.76 124.44 24.93Q125.56 24.10 126.60 23.49Q127.65 22.88 127.86 22.81Z"></path></svg>